<?xml version="1.0"?>
<svg xmlns="http://www.w3.org/2000/svg" xmlns:xlink="http://www.w3.org/1999/xlink" version="1.1" viewBox="0 0 252 252" width="50px" height="50px"><g fill="none" fill-rule="nonzero" stroke="none" stroke-width="1" stroke-linecap="butt" stroke-linejoin="miter" stroke-miterlimit="10" stroke-dasharray="" stroke-dashoffset="0" font-family="none" font-weight="none" font-size="none" text-anchor="none" style="mix-blend-mode: normal"><path d="M0,252v-252h252v252z" fill="none"/><path d="M126,252c-69.58788,0 -126,-56.41212 -126,-126v0c0,-69.58788 56.41212,-126 126,-126v0c69.58788,0 126,56.41212 126,126v0c0,69.58788 -56.41212,126 -126,126z" fill="#2c3e50"/><g fill="#ffffff"><g id="surface1"><path d="M68.25,84.42v6.42469c6.95707,6.05473 46.86774,40.8491 50.02594,43.60125c3.24844,2.83336 6.48785,3.10406 7.72406,3.10406c1.23621,0 4.47563,-0.2707 7.72406,-3.10406c3.27551,-2.85141 45.51422,-39.67605 50.02594,-43.60125v-6.42469zM68.25,96.98063v57.96656l34.93875,-27.57562c-11.32441,-9.85359 -27.47637,-23.89406 -34.93875,-30.39094zM183.75,96.98063c-7.0473,6.13594 -23.45191,20.39297 -34.93875,30.39094l34.93875,27.50344zM106.72594,130.47562l-38.47594,30.31875v6.78562h115.5v-6.85781l-38.47594,-30.24656c-4.47562,3.89812 -7.69699,6.72246 -8.51812,7.43531c-4.43051,3.85301 -9.00539,4.25906 -10.75594,4.25906c-1.75055,0 -6.32543,-0.39703 -10.75594,-4.25906c-0.81211,-0.70383 -4.03348,-3.52816 -8.51812,-7.43531z"/></g></g></g></svg>
