<?xml version="1.0"?>
<svg xmlns="http://www.w3.org/2000/svg" xmlns:xlink="http://www.w3.org/1999/xlink" version="1.1" viewBox="0 0 252 252" width="26px" height="26px"><g fill="none" fill-rule="nonzero" stroke="none" stroke-width="1" stroke-linecap="butt" stroke-linejoin="miter" stroke-miterlimit="10" stroke-dasharray="" stroke-dashoffset="0" font-family="none" font-weight="none" font-size="none" text-anchor="none" style="mix-blend-mode: normal"><path d="M0,252v-252h252v252z" fill="none"/><path d="M126,252c-69.58788,0 -126,-56.41212 -126,-126v0c0,-69.58788 56.41212,-126 126,-126v0c69.58788,0 126,56.41212 126,126v0c0,69.58788 -56.41212,126 -126,126z" fill="#2c3e50"/><g fill="#ffffff"><g id="surface1"><path d="M181.9496,155.73834c-9.1456,-7.82919 -18.45287,-12.58675 -27.483,-4.75756l-5.40422,4.71137c-3.94924,3.44115 -11.29343,19.46905 -39.67713,-13.21031c-28.38369,-32.61007 -11.50128,-37.69096 -7.52895,-41.08592l5.42732,-4.73447c8.98393,-7.82918 5.58898,-17.69073 -0.9007,-27.85251l-3.90305,-6.14326c-6.51278,-10.11559 -13.62602,-16.76693 -22.63305,-8.96084l-4.87304,4.27257c-3.99543,2.88687 -15.12719,12.3327 -17.8293,30.25438c-3.25639,21.5014 7.02087,46.14372 30.50843,73.16481c23.46447,27.04419 46.46704,40.62402 68.22249,40.39307c18.08334,-0.20785 29.03035,-9.90773 32.44841,-13.44126l4.87304,-4.27256c9.00703,-7.8061 3.41805,-15.77385 -5.75065,-23.60304z"/></g></g><path d="M126,252c-69.58788,0 -126,-56.41212 -126,-126v0c0,-69.58788 56.41212,-126 126,-126v0c69.58788,0 126,56.41212 126,126v0c0,69.58788 -56.41212,126 -126,126z" fill="none"/><path d="M126,246.96c-66.80436,0 -120.96,-54.15564 -120.96,-120.96v0c0,-66.80436 54.15564,-120.96 120.96,-120.96h0c66.80436,0 120.96,54.15564 120.96,120.96v0c0,66.80436 -54.15564,120.96 -120.96,120.96z" fill="none"/><path d="M126,252c-69.58788,0 -126,-56.41212 -126,-126v0c0,-69.58788 56.41212,-126 126,-126v0c69.58788,0 126,56.41212 126,126v0c0,69.58788 -56.41212,126 -126,126z" fill="none"/><path d="M126,246.96c-66.80436,0 -120.96,-54.15564 -120.96,-120.96v0c0,-66.80436 54.15564,-120.96 120.96,-120.96h0c66.80436,0 120.96,54.15564 120.96,120.96v0c0,66.80436 -54.15564,120.96 -120.96,120.96z" fill="none"/></g></svg>
