<?xml version="1.0"?>
<svg xmlns="http://www.w3.org/2000/svg" xmlns:xlink="http://www.w3.org/1999/xlink" version="1.1" viewBox="0 0 252 252" width="50px" height="50px"><g fill="none" fill-rule="nonzero" stroke="none" stroke-width="1" stroke-linecap="butt" stroke-linejoin="miter" stroke-miterlimit="10" stroke-dasharray="" stroke-dashoffset="0" font-family="none" font-weight="none" font-size="none" text-anchor="none" style="mix-blend-mode: normal"><path d="M0,252v-252h252v252z" fill="none"/><path d="M126,252c-69.58788,0 -126,-56.41212 -126,-126v0c0,-69.58788 56.41212,-126 126,-126v0c69.58788,0 126,56.41212 126,126v0c0,69.58788 -56.41212,126 -126,126z" fill="#2c3e50"/><g fill="#ffffff"><path d="M122.93231,55.76061c-10.02829,1.994 -18.94593,13.62669 -24.54754,30.29347h24.54754zM129.06769,55.76061v30.29347h24.54754c-5.60161,-16.66678 -14.51925,-28.29947 -24.54754,-30.29347zM107.31224,57.97151c-16.21889,4.46043 -30.11406,14.56939 -39.43064,28.08258h23.90045c3.71804,-11.93026 9.08191,-21.64042 15.5302,-28.08258zM144.68776,57.97151c6.44829,6.43909 11.81215,16.15232 15.5302,28.08258h23.90044c-9.31658,-13.51012 -23.21175,-23.62215 -39.43064,-28.08258zM64.01702,92.32128c-5.00034,9.16933 -8.02058,19.56733 -8.49607,30.61103h30.63499c0.21781,-11.00688 1.57579,-21.34966 3.87656,-30.61103zM96.50341,92.32128c-2.46643,9.22149 -3.96988,19.63789 -4.2061,30.61103h30.63499v-30.61103zM129.06769,92.32128v30.61103h30.63499c-0.23928,-10.97314 -1.73967,-21.38954 -4.2061,-30.61103zM161.9675,92.32128c2.30077,9.2583 3.65583,19.60414 3.87057,30.61103h30.64098c-0.47549,-11.0437 -3.49266,-21.44169 -8.49607,-30.61103zM55.52095,129.06769c0.47549,11.0437 3.49266,21.44169 8.49607,30.61103h26.01548c-2.30077,-9.26137 -3.65583,-19.60414 -3.87057,-30.61103zM92.29732,129.06769c0.23928,10.97314 1.73967,21.38954 4.2061,30.61103h26.42889v-30.61103zM129.06769,129.06769v30.61103h26.42889c2.46643,-9.22149 3.96988,-19.63482 4.2061,-30.61103zM165.84406,129.06769c-0.21781,11.00688 -1.57579,21.34966 -3.87656,30.61103h26.01548c5.00034,-9.16933 8.02058,-19.56733 8.49607,-30.61103zM67.88159,165.94592c9.31658,13.51012 23.21175,23.62215 39.43064,28.08257c-6.44829,-6.43909 -11.81215,-16.15232 -15.5302,-28.08257zM98.38477,165.94592c5.60161,16.66678 14.51925,28.29947 24.54754,30.29347v-30.29347zM129.06769,165.94592v30.29347c10.02829,-1.994 18.94593,-13.62669 24.54754,-30.29347zM160.21796,165.94592c-3.71804,11.93026 -9.08191,21.64042 -15.5302,28.08257c16.21889,-4.46043 30.11406,-14.56939 39.43064,-28.08257z"/></g></g></svg>
