<?xml version="1.0"?>
<svg xmlns="http://www.w3.org/2000/svg" viewBox="0 0 50 50" fill="#2c3e50" width="50px" height="50px">
    <path style="line-height:normal;text-indent:0;text-align:start;text-decoration-line:none;text-decoration-style:solid;text-decoration-color:#000;text-transform:none;block-progression:tb;isolation:auto;mix-blend-mode:normal" d="M 25 2.0078125 C 24.929246 2.0078125 24.859664 2.0130383 24.789062 2.0136719 C 24.543832 2.0156803 24.298245 2.021395 24.052734 2.03125 C 23.903309 2.0372747 23.754135 2.043888 23.605469 2.0527344 C 23.355265 2.0676513 23.105643 2.0881806 22.855469 2.1113281 C 22.73685 2.1222404 22.618083 2.1318336 22.5 2.1445312 C 22.253617 2.1711988 22.007785 2.2035478 21.761719 2.2382812 C 21.609615 2.2596133 21.457763 2.2804083 21.306641 2.3046875 C 21.099249 2.3382122 20.892502 2.3766907 20.685547 2.4160156 C 20.504498 2.4502301 20.324036 2.4850223 20.144531 2.5234375 C 19.988076 2.5570903 19.831868 2.5938449 19.675781 2.6308594 C 19.44469 2.6854178 19.214638 2.743238 18.986328 2.8046875 C 18.878193 2.8338998 18.77001 2.863677 18.662109 2.8945312 C 18.385314 2.9734162 18.110276 3.0576216 17.837891 3.1464844 C 17.771402 3.1682322 17.705048 3.1905055 17.638672 3.2128906 C 17.340223 3.3133061 17.044735 3.4190867 16.751953 3.53125 C 16.694658 3.5532272 16.637272 3.5751918 16.580078 3.5976562 C 16.272599 3.7183061 15.968769 3.8451875 15.667969 3.9785156 C 15.616359 4.0013825 15.565183 4.0255524 15.513672 4.0488281 C 15.234748 4.1749466 14.958359 4.3046234 14.685547 4.4414062 C 14.59015 4.489131 14.495393 4.5387191 14.400391 4.5878906 C 14.156218 4.7146262 13.914698 4.8453308 13.675781 4.9804688 C 13.61951 5.0121499 13.561973 5.040061 13.505859 5.0722656 C 13.449707 5.1044976 13.395658 5.1392216 13.339844 5.171875 C 13.15312 5.2816895 12.968435 5.3948736 12.785156 5.5097656 C 12.616012 5.6151231 12.449023 5.72275 12.283203 5.8320312 C 12.185068 5.8971574 12.087298 5.96271 11.990234 6.0292969 C 8.0261769 8.7293207 5.0496661 12.554742 3.4082031 17.0625 C 3.3942693 17.100531 3.3828793 17.139609 3.3691406 17.177734 C 3.2605556 17.480854 3.1550465 17.784688 3.0585938 18.09375 C 3.0294918 18.186683 3.0045153 18.281558 2.9765625 18.375 C 2.9120361 18.591185 2.8436968 18.80648 2.7851562 19.025391 C 2.769188 19.085115 2.7576697 19.145299 2.7421875 19.205078 C 2.7239679 19.275561 2.7089745 19.347222 2.6914062 19.417969 C 2.6154478 19.722884 2.5438417 20.027924 2.4804688 20.333984 C 2.4735509 20.367708 2.467708 20.401769 2.4609375 20.435547 C 1.7670127 23.863168 1.8609586 27.348723 2.7128906 30.679688 C 2.7271115 30.735905 2.7431797 30.791606 2.7578125 30.847656 C 2.8262771 31.107124 2.8988802 31.365633 2.9765625 31.623047 C 3.0216943 31.77396 3.0671119 31.924638 3.1152344 32.074219 C 3.1764678 32.263045 3.2404182 32.451124 3.3066406 32.638672 C 3.3700945 32.819558 3.4360985 32.998966 3.5039062 33.177734 C 3.5611976 33.327991 3.6191619 33.477629 3.6796875 33.626953 C 3.7695357 33.849527 3.8624442 34.070038 3.9589844 34.289062 C 4.0094422 34.40328 4.0609015 34.51726 4.1132812 34.630859 C 4.2233484 34.86986 4.3390957 35.105384 4.4570312 35.339844 C 4.5024775 35.430296 4.5470607 35.521316 4.59375 35.611328 C 4.7183461 35.851043 4.8477701 36.087621 4.9804688 36.322266 C 5.012414 36.379016 5.0398146 36.437585 5.0722656 36.494141 C 5.0957357 36.535034 5.1227985 36.572587 5.1464844 36.613281 C 5.361529 36.980887 5.585795 37.343122 5.8203125 37.697266 C 5.8726044 37.776659 5.9234196 37.857001 5.9765625 37.935547 C 6.1877983 38.246099 6.4069999 38.550257 6.6328125 38.849609 C 6.7949747 39.06556 6.9621384 39.275548 7.1308594 39.484375 C 7.2249948 39.600473 7.3196737 39.715876 7.4160156 39.830078 C 8.0215845 40.55006 8.6670067 41.22366 9.3457031 41.853516 C 9.4439634 41.944798 9.5407704 42.037386 9.640625 42.126953 C 9.8523491 42.316571 10.067262 42.500747 10.285156 42.681641 C 10.384765 42.764558 10.486862 42.84453 10.587891 42.925781 C 10.919137 43.191319 11.255561 43.447782 11.599609 43.693359 C 11.806269 43.841561 12.012883 43.989429 12.224609 44.130859 C 12.363296 44.223027 12.504046 44.311387 12.644531 44.400391 C 12.914768 44.572542 13.188993 44.739384 13.466797 44.900391 C 13.565171 44.957071 13.662581 45.015134 13.761719 45.070312 C 16.250274 46.463627 19.025664 47.40336 21.980469 47.789062 C 22.032538 47.795962 22.084593 47.802047 22.136719 47.808594 C 22.528953 47.857077 22.924081 47.897209 23.322266 47.925781 C 23.423252 47.933219 23.523871 47.943103 23.625 47.949219 C 24.080153 47.975918 24.537996 47.992187 25 47.992188 C 25.007165 47.992194 25.014319 47.992188 25.021484 47.992188 C 25.459642 47.991787 25.894172 47.975603 26.326172 47.951172 C 26.50591 47.940985 26.685481 47.924583 26.865234 47.910156 C 27.136704 47.888471 27.407089 47.863014 27.675781 47.832031 C 27.841151 47.812848 28.00665 47.794303 28.171875 47.771484 C 28.519207 47.7238 28.862934 47.666462 29.205078 47.603516 C 29.298216 47.586296 29.391338 47.571131 29.484375 47.552734 C 29.948479 47.461411 30.407813 47.358922 30.861328 47.240234 C 30.882161 47.234762 30.903003 47.228189 30.923828 47.222656 C 31.364227 47.106062 31.799003 46.973611 32.228516 46.832031 C 32.282039 46.814353 32.335222 46.795436 32.388672 46.777344 C 32.839537 46.625008 33.284922 46.462197 33.722656 46.283203 C 33.723996 46.282655 33.725223 46.281798 33.726562 46.28125 C 34.199692 46.087677 34.664485 45.879794 35.121094 45.65625 C 35.128372 45.652694 35.135303 45.648095 35.142578 45.644531 C 35.558224 45.440489 35.966231 45.224018 36.367188 44.996094 C 36.409263 44.972292 36.452154 44.951829 36.494141 44.927734 C 36.550293 44.895502 36.604342 44.860778 36.660156 44.828125 C 36.84688 44.718311 37.031565 44.605126 37.214844 44.490234 C 37.383988 44.384877 37.550977 44.27725 37.716797 44.167969 C 37.814932 44.102843 37.912702 44.03729 38.009766 43.970703 C 41.980116 41.266393 44.959783 37.43309 46.599609 32.916016 C 46.610886 32.88514 46.619711 32.853203 46.630859 32.822266 C 46.739444 32.519146 46.844953 32.215312 46.941406 31.90625 C 46.970508 31.813317 46.995485 31.718442 47.023438 31.625 C 47.087964 31.408815 47.156303 31.19352 47.214844 30.974609 C 47.230812 30.914885 47.24233 30.854701 47.257812 30.794922 C 47.276032 30.724439 47.291025 30.652778 47.308594 30.582031 C 47.386667 30.268628 47.460613 29.955234 47.525391 29.640625 C 47.530528 29.615434 47.534007 29.589675 47.539062 29.564453 C 48.232987 26.136832 48.139041 22.651277 47.287109 19.320312 C 47.272889 19.264095 47.25682 19.208394 47.242188 19.152344 C 47.173723 18.892876 47.10112 18.634367 47.023438 18.376953 C 46.978306 18.22604 46.932888 18.075362 46.884766 17.925781 C 46.823532 17.736955 46.759582 17.548876 46.693359 17.361328 C 46.629906 17.180442 46.563901 17.001034 46.496094 16.822266 C 46.438802 16.672009 46.380838 16.522371 46.320312 16.373047 C 46.230464 16.150473 46.137556 15.929962 46.041016 15.710938 C 45.990558 15.59672 45.939098 15.48274 45.886719 15.369141 C 45.776652 15.13014 45.660904 14.894616 45.542969 14.660156 C 45.497523 14.569704 45.452939 14.478684 45.40625 14.388672 C 45.281654 14.148957 45.15223 13.912379 45.019531 13.677734 C 44.987586 13.620984 44.960185 13.562415 44.927734 13.505859 C 44.896421 13.451317 44.861775 13.39989 44.830078 13.345703 C 44.714805 13.149579 44.59548 12.955995 44.474609 12.763672 C 44.374839 12.604103 44.274998 12.445359 44.171875 12.289062 C 44.092787 12.169809 44.012883 12.051263 43.931641 11.933594 C 43.768466 11.696078 43.602459 11.462034 43.431641 11.232422 C 43.416361 11.211973 43.400112 11.19227 43.384766 11.171875 C 41.606587 8.7983526 39.428751 6.8498232 36.996094 5.3710938 C 36.808595 5.2564837 36.616792 5.1483978 36.425781 5.0390625 C 36.306494 4.9711696 36.188751 4.8996782 36.068359 4.8339844 C 33.853778 3.6187354 31.415951 2.7596206 28.830078 2.328125 C 28.819737 2.3263808 28.809172 2.3259489 28.798828 2.3242188 C 28.496766 2.2742401 28.192684 2.2314952 27.886719 2.1933594 C 27.804655 2.182962 27.722821 2.1716309 27.640625 2.1621094 C 27.418392 2.1368312 27.194839 2.1165851 26.970703 2.0976562 C 26.778063 2.0809982 26.585764 2.0645712 26.392578 2.0527344 C 26.23553 2.0434024 26.077816 2.0374323 25.919922 2.03125 C 25.674167 2.0212284 25.427977 2.013888 25.181641 2.0117188 C 25.120836 2.0112489 25.060918 2.0078125 25 2.0078125 z M 32.5 10 C 33.881 10 35 11.119 35 12.5 C 35 13.881 33.881 15 32.5 15 C 31.119 15 30 13.881 30 12.5 C 30 12.327375 30.017486 12.158857 30.050781 11.996094 C 30.283846 10.856748 31.291625 10 32.5 10 z M 25 13.003906 C 26.073251 13.003906 27.107248 13.156234 28.095703 13.417969 C 28.520797 15.460395 30.333461 17 32.5 17 C 32.937865 17 33.353381 16.917997 33.753906 16.800781 C 35.547488 18.715884 36.717338 21.216663 36.945312 24 L 32.929688 24 C 32.434897 20.060397 29.069566 17 24.998047 17 C 23.895297 17 22.843484 17.225469 21.886719 17.630859 L 19.90625 14.142578 C 21.452266 13.419463 23.173923 13.003906 25 13.003906 z M 18.167969 15.132812 L 20.164062 18.642578 C 18.245357 20.105356 16.998047 22.406744 16.998047 25 C 16.998047 27.58373 18.235893 29.878205 20.142578 31.341797 L 18.136719 34.84375 C 15.914903 33.295506 14.251401 31.015397 13.482422 28.34375 C 14.406074 27.518998 15 26.332567 15 25 C 15 23.667433 14.406074 22.481002 13.482422 21.65625 C 14.255101 18.971748 15.930116 16.681397 18.167969 15.132812 z M 10.5 22.5 C 11.881 22.5 13 23.619 13 25 C 13 26.381 11.881 27.5 10.5 27.5 C 9.119 27.5 8 26.381 8 25 C 8 24.827375 8.0174863 24.658857 8.0507812 24.496094 C 8.2838457 23.356748 9.291625 22.5 10.5 22.5 z M 32.929688 26 L 36.945312 26 C 36.723587 28.70704 35.611286 31.147042 33.900391 33.041016 C 33.76644 33.028959 33.637032 33 33.5 33 C 31.462713 33 29.757201 34.369774 29.205078 36.230469 C 27.896246 36.717918 26.483203 36.996094 25 36.996094 C 23.159889 36.996094 21.426167 36.573461 19.871094 35.839844 L 21.863281 32.359375 C 22.826937 32.7717 23.885371 33 24.998047 33 C 29.069566 33 32.434897 29.939603 32.929688 26 z M 33.5 35 C 34.881 35 36 36.119 36 37.5 C 36 38.881 34.881 40 33.5 40 C 32.119 40 31 38.881 31 37.5 C 31 37.327375 31.017486 37.158857 31.050781 36.996094 C 31.283846 35.856748 32.291625 35 33.5 35 z" font-weight="400" font-family="sans-serif" white-space="normal" overflow="visible" fill="#2c3e50"/>
</svg>
